REM MD5 d0eba9647e53bf8038b0455ad41173b9
FILE "Army Men - Air Attack (Europe) (En,Fr,De).bin" BINARY
  TRACK 01 MODE2/2352
    INDEX 01 00:00:00
  TRACK 02 AUDIO
    INDEX 00 66:08:49
    INDEX 01 66:10:49
  TRACK 03 AUDIO
    INDEX 00 67:10:50
    INDEX 01 67:12:50
REM LEADOUT 70:17:25
